<svg version="1.1" id="maven" xmlns="http://www.w3.org/2000/svg" xmlns:xlink="http://www.w3.org/1999/xlink"
	 viewBox="0 0 407.4 667.9" width="408px" height="668px">
	<style type="text/css">
		.st0{fill:#FAF4F1;}
		.st1{fill:#DF795E;}
		.st2{fill:#CD4B29;}
		.st3{fill:#E0475A;}
		.st4{fill:#FBB041;}
		.st5{fill:#86371C;}
		.st6{fill:#FFFFFF;}
	</style>
	<title>maven</title>
	<g>
		<g id="maven-circle">
			<path id="Shape" class="st0" d="M40.1,231.1l-3.7,32.5l-1.6,16.3l6.5,15c0,0,2.4,17.9,1.6,19.1c-0.8,1.2,2.4,13,2,14.2
				c-0.4,1.2-2,28.5-3.3,28.5c-1.2,0,18.7,19.9,47.6,28.1s85.4,17.5,183.4-26l22.4-13.8l24-20.7l0.4-46.8c0,0-34.6-19.9-34.2-21.6
				c0.4-1.6-2-42.7-5.7-50c-3.7-7.3,33.3-16.7,33.3-16.7l13-33.8c0,0,12.2-103.7,8.9-125.3c-3.3-21.6-7.3-33.3-27.7-24.8
				c-20.3,8.5-39.4,39-39.9,40.3c-0.4,1.2-13,17.9-13,17.9L226,87.2c0,0-40.7-7.7-71.6,1.6c-30.9,9.8-37.8-7.3-40.7-10.2
				c-2.4-2.8-76.5-76-102.1-55.3L6,29.8l-1.2,22l8.5,27.7L32,126.6l24.8,42.7L40.1,231.1L40.1,231.1z"/>
			<path id="Shape_1_" class="st0" d="M396.4,550.4c2.4-23.6,2.8-102.5,1.6-111.4c-1.2-8.5-37.4-19.5-38.6-19.9
				c-1.2-0.4-31.3,8.9-43.1-31.7c-11.8-40.7,9.8-6.9-64.3,21.1c-74,27.7-108.6,24-148.8,12.6s-68.7-37-68.7-37l-7.7,16.7
				c-3.7,11.8-2,34.6-2,34.6l1.6,100.9c0,0,4.9,50.8,5.3,54.9c0.4,4.1,12.6,41.9,12.6,41.9l18.3,13.8l27.2,2
				c12.2-8.5,16.7-26,22.4-49.2c2.4-9.4,0.8-15.9-0.8-19.9l3.3,3.3c14.2,13.4,59.4,19.1,59.4,19.1s-1.6,0.8,13,13.8
				c15,13,46,0.4,48-9.8c2-9.8,6.1-11.8,7.3-11.4c1.2,0.4,17.5-4.5,17.5-4.5s7.3,41.9,17.5,56.5c10.2,15,22.4,17.9,44.7,14.2
				c22.4-3.7,33.8-31.3,37-40.3c3.3-8.9,4.9-22.8,4.9-22.8s2.8,9.8,11,11c8.1,1.6,20.7-11.4,23.2-17.9
				C400.4,583.7,394.3,574,396.4,550.4"/>
			<path id="Shape_2_" class="st1" d="M319.5,279.9l-3.7-60.6l12.2-53.7c0,0,13-93.1,8.5-117.9c0,0-2.4-13.8-4.1,12.2
				c-2,26-19.5,111.8-23.6,121.6c0,0-39.9-95.2-89.5-97.6l-26-1.2c-8.9,17.9-25.6,72.8-19.1,144c2,19.1,8.5,32.9,17.9,42.3
				c2-3.7,5.3-6.1,9.4-7.3h0.4c0.8-0.8,1.6-2,2.8-2.8c-0.4-0.4-0.4-0.8,0.4-1.6c2-2.4,4.5-5.3,6.5-7.7l0.4-0.4c0.4-0.8,0.8-1.2,1.2-2
				c0.8-1.2,2.4-0.4,2.4,0.4c0.4,0.4,0.4,0.8,0.4,1.2l-1.2,3.7c-1.6,5.3-5.3,9.4-9.8,12.2c-1.6,3.3-4.1,6.1-6.9,8.5
				c25.6,19.9,64.3,16.3,79.3,12.2C299.6,279.9,315.8,274.6,319.5,279.9L319.5,279.9z M116.6,72.9c0,0-20.3-14.6-20.7-16.3
				c-0.4-1.2-21.6-19.1-22-20.3c-0.4-1.2-38.6-14.6-38.6-14.6s13.8,13,20.7,14.2c6.9,1.6,34.6,27.2,34.6,27.2s23.2,33.3,24.8,33.3
				c8.1,0,8.9-0.8-7.7,8.9s-31.3,35-45.5,55.3S32.4,261.2,35.6,265.3c3.3,4.5,22.4,6.9,23.2-6.1s7.7-13.8,11.8-16.3
				c4.1-2.4,16.7-3.7,17.9-3.3c1.6-1.2,3.7-2.4,6.5-4.1c20.3-13,19.9-32.1,25.6-69.5c5.7-37.4,21.6-63.4,37.4-79.3H141L116.6,72.9
				L116.6,72.9z M400,449.5c-3.3-11.4-22.4-65.9-27.7-69.5c-5.7-3.7-27.2-31.3-43.1-30.1c0,0-0.4,0-5.7,6.9
				c-5.3,6.9-10.6,12.6-10.6,12.6l-15,14.2l-11.4,6.1l-3.3,2.4c0,0-8.5,16.7,7.3,39.4c15.9,22.8,35,28.1,36.6,75.6
				c2,47.6,15.5,69.5,36.2,70.8c0,0,0.8-41.5,0.8-40.3s-1.6-7.3-1.6-7.3s17.9-17.5,19.5-21.1c1.6-4.1,6.1,2.8,4.9,24
				c-0.8,21.1,5.7,18.7,6.9,18.7c1.2,0,7.3-36.6,8.5-46.4C403.7,496.7,403.3,460.9,400,449.5L400,449.5z M37.7,386.9l-6.5-4.9
				L23,402.7l1.6,44.3l2,84.6l1.2,33.8c0,0,4.5,8.5,6.1-11s-5.7-32.1-6.9-46.4c-0.8-14.2-3.7-37.8,7.3-61.4S37.7,388.9,37.7,386.9
				L37.7,386.9z"/>
			<path id="Shape_3_" class="st2" d="M46.2,336.5l-5.7,19.9l10.6,11l9.8,7.3l15.9,6.9l16.7,6.1c0,0,24.4,5.3,25.2,4.1
				c0.4-1.2,35,0.8,35,0.8l25.6-3.7l33.3-6.9l30.9-8.9l41.1-19.9l24.4-17.5l11.8-12.2l7.3-8.9c0,0,2,37.4,1.2,36.2
				c-0.8-1.2-14.6,18.7-14.6,18.7l-24.4,20.7c0,0-37,20.7-53.3,25.6c-16.7,4.9-63,15-63,15s-48.8,1.2-60.6-4.9
				c-11.4-6.1-37.8-13-37.8-13l-34.2-20.7l-17.1-13l4.1-28.5c0,0,5.3-8.5,10.6-11"/>
			<path id="Shape_4_" class="st3" d="M207.7,254.3l-14.2,11l-13.8,6.9l-15,5.7l-16.7,2.8l-18.3,2l-17.1-4.5l-8.9-2.8l-12.2,4.1
				l-2.4,3.3l-6.5,5.3l-1.2,4.5l0.8,0.8v0.4c0,0,6.5,3.7,11,6.5c4.5,2.8,32.1,0,32.1,0l17.9-4.1l1.2-7.3c1.6-1.2,2.8-1.6,2.8-1.6H180
				l20.7-13.8l13.8-18.3l1.6-11.8L207.7,254.3L207.7,254.3z"/>
			<g id="Group">
				<polyline id="Shape_5_" class="st3" points="147.9,283.2 142.2,300.7 143,321.4 148.3,343 155.2,354.8 165.4,358.8 175.5,356.8
					183.7,349.9 184.9,342.6 184.5,330.4 182.1,319.4 178.4,301.1 181.2,290.5 184.5,279.9 190.2,269.4 164.2,277.5 			"/>
				<path id="Shape_6_" class="st4" d="M147.1,439.4c-0.4,19.5-9.8,35-20.7,34.6c-11-0.4-19.5-16.3-19.1-35.4
					c0.4-19.5,9.8-35,20.7-34.6C139.3,404,147.9,419.8,147.1,439.4"/>
				<path id="Shape_7_" class="st5" d="M128.4,406.4c-9.4-0.4-17.5,14.6-17.9,32.1c-0.4,17.5,7.3,32.5,16.3,32.9
					c9.4,0.4,17.5-14.6,17.9-32.1C145,421.9,137.7,406.8,128.4,406.4 M126.7,476.4c-12.6-0.4-22-17.1-21.6-38.2
					c0.4-21.1,10.6-37.4,23.2-37c12.6,0.4,22,17.1,21.6,38.2C149.5,460.5,138.9,476.8,126.7,476.4"/>
				<path id="Shape_8_" class="st4" d="M143.4,439.4c-0.4,19.5-9.8,35.4-20.7,35c-11-0.4-19.5-16.3-19.1-35.8s9.8-35.4,20.7-35
					C135.3,403.6,143.8,419.8,143.4,439.4"/>
				<path id="Shape_9_" class="st5" d="M124.3,406c-9.4-0.4-17.5,14.6-17.9,32.5c-0.4,17.9,7.3,32.9,16.3,33.3
					c9.4,0.4,17.5-14.6,17.9-32.5C141.4,421.5,133.7,406,124.3,406 M122.7,476.8c-12.6-0.4-22-17.1-21.6-38.6
					c0.4-21.1,10.6-37.8,23.2-37.4c12.6,0.4,22,17.1,21.6,38.6C145.4,460.5,135.3,477.2,122.7,476.8"/>
				<path id="Shape_10_" class="st6" d="M109.3,429.6l26.8,19.9c0,0-1.2,6.9-1.6,7.7l-26-21.6C108,435.7,108.4,431.6,109.3,429.6"/>
				<path id="Shape_11_" class="st5" d="M86.5,253.5c-1.2-6.5,3.3-7.7,3.3-7.7c-0.8,4.9,1.6,7.7,5.3,8.9c0.8,7.7,2.8,14.6,6.9,19.9
					h-0.4c-11,4.1-22.8,2.4-32.9-3.3c-11-6.1-10.6-22.8-0.4-26.8c2.4-0.4,4.5-0.4,6.9,0C77.1,254.7,87.3,258.8,86.5,253.5
					 M113.3,282.4c9.8,3.3,20.3,3.7,30.9,2.8c-0.8,1.2-1.6,2.8-2,4.5c-1.2,1.6-2,3.7-2.4,5.3c-10.6,2.8-20.7,4.9-31.7,5.3
					c-7.7,0-15-1.2-22-4.9c-6.9-3.3,3.3-10.6,7.7-14.2c3.7-0.4,6.9-1.6,9.4-3.3c0.4-0.4,0.8-0.8,0.8-1.2
					C106,278.7,109.3,281.2,113.3,282.4 M212.6,252.3c1.2-1.6,2.4-3.3,3.7-5.3c-0.8,2.4-1.6,4.5-2.8,6.9c-2.4,4.9-6.5,9.4-10.2,13
					c-4.9,4.9-10.2,9.8-15.9,13.8c1.6-3.7,2.8-7.3,4.5-11C199.9,265.3,206.9,259.2,212.6,252.3 M167,356.4
					c-14.2,0.4-19.1-22-20.7-32.1c-2-12.2-2.8-28.9,5.3-39.4c0.4-0.4,0.4-0.8,0.4-0.8c4.1-0.8,7.7-1.6,11.4-2.4
					c-6.9,14.2-1.6,31.3-2.4,46.8c0,0.8,1.2,0.8,1.2,0c1.6-16.7-3.3-33.8,6.5-48.4c6.1-2,12.6-4.5,18.3-7.3
					c-6.9,10.2-11.8,21.6-10.2,34.6C179.2,321.4,192.2,355.6,167,356.4 M58.8,268.5c3.3,4.9,9.4,8.5,16.3,10.6
					c-8.5,5.3-6.9,20.3-2,28.5c8.5,15.5,31.7,20.7,48,19.9c0.4,0,0.4-0.8,0-0.8c-13.4-0.8-29.3-6.1-39.4-15c-4.5-4.1-6.9-9.4-8.1-15
					c-1.6-7.7,2.8-11.4,8.1-15.9c2.4,0.4,4.9,0.4,7.3,0.4c-3.7,3.3-7.3,6.9-10.6,10.6c-0.8,0.8-0.8,2,0.4,2.8
					c16.7,13.4,40.7,9.8,61,4.9c-4.1,22.4,2.4,54.1,20.7,61c13.8,5.3,26-4.5,27.7-18.3c1.2-10.2-2.4-20.7-4.5-30.5
					c-2.8-9.4-1.2-17.1,1.2-24.8c13.8-8.1,37.8-27.7,33.3-44.3c-0.4-0.8-1.2-1.6-2-1.6h-0.8c-0.8,0-1.6,0.4-2,0.8
					c-13.8,21.6-38.2,32.5-62.6,37c-11,2-23.2,1.6-34.2-0.4c-12.6-2.4-17.9-12.2-21.6-23.6c6.1,1.6,14.2-1.2,13.4-4.9
					c-1.6-5.7,6.9-13.4,5.3-7.7c-1.6,5.7,1.2,9.8,4.9,9.8c4.1,0,13-4.9,10.6-12.2c-2.4-7.3-13.8-12.6-24-9.8
					c-9.8,2.8-29.3-3.3-30.9,9.8v0.4c-8.5-2-17.1,4.5-18.7,13C55.6,258.4,56,263.7,58.8,268.5 M85.7,221.8
					c8.9,0.4,13.4-7.7,12.2-15.5c0.4-1.6,0-3.7-1.6-5.3c-1.2-4.5-4.5-7.7-8.9-8.5c-4.9-0.4-8.9,3.3-11.8,6.9
					c-2.8,3.7-4.5,8.9-3.3,13.4C74.3,218.9,80,221.8,85.7,221.8 M243.9,205.5c0.4-5.3-1.2-9.8-4.5-13.4c-0.8-1.2-2-2.4-4.1-3.3
					c-2-1.2-4.1-1.6-6.1-2c-2-0.4-4.5,0-6.1,0.4c-7.7,0.4-13.4,5.7-13.8,13.8C208.9,220.1,241.4,226.2,243.9,205.5"/>
				<path id="Shape_12_" class="st5" d="M383.8,603.2c-6.9,2.4-13.4,0-14.6-1.6l-2.8-4.1l-0.8,0.4c1.2-9.8,2-19.9,2.4-29.7
					c0.4-7.7,0-16.7-1.2-26c-0.8-6.1-2.4-12.6-3.7-18.7c-0.4-2-3.7-1.6-3.7,0.4c0.8,8.9,1.6,19.1,1.6,28.9c0.4,5.3,0.4,10.2,0.4,14.6
					c-2,37-7.7,80.5-36.6,89.5c-11.4,3.7-22,6.1-30.9,0.8c-12.6-7.7-23.2-30.5-33.3-72.8c-4.1-15-7.7-30.9-8.1-32.1
					c0,1.6,1.2,19.5,2.8,33.3c0,0.8-0.4,1.6-1.2,2c-57.3,16.3-102.5,14.2-134.6-6.1c-8.5-5.3-15.5-11.8-20.7-17.9
					c-2.4-2.8-4.9-6.1-7.3-9.4c-1.2-1.6-4.1-0.4-3.3,1.6c2.8,6.5,7.3,13.8,13,19.9c2.4,2.4,5.3,4.9,8.5,6.9c0.4,0.4,0.8,0.8,0.8,1.6
					v0.8c-2.8,31.7-9.4,50-19.1,56.5c-8.1,5.3-19.1,2.4-31.3-1.6c-20.3-6.9-28.9-73.2-29.3-115.9v-12.6c-0.4-30.9-1.2-78.1-2.4-92.3
					c-1.2-11,2.8-24,5.3-30.5c0.4-1.2,1.6-1.6,2.8-0.8c12.6,9.8,36.2,27.2,70.4,37c0.8,0.4,1.6-0.4,2-1.2l0.8-1.6
					c0.4-0.8,0-2-1.2-2.4C72.2,410.1,47.8,391,36.9,382c-1.6-1.2-4.1-2.8-4.1-2.8l-2-1.6c-0.4-0.4-0.8-1.2-0.8-2
					c1.6-5.3,2.8-12.6,3.7-19.1c0-1.6,2-2,2.8-0.8c12.6,13.4,41.5,36.6,91.9,38.6h4.1c64.3,1.6,150.5-25.2,190.3-69.1
					c1.2-1.2,3.3-0.4,3.3,1.2v22.4c-6.9,13.4-31.7,48.8-112.7,70.8c-24.8,6.9-47.6,8.5-67.5,6.9c-1.2,0-2,0.8-2,2l0.4,1.6
					c0,0.8,0.8,1.2,1.6,1.2c2.8,0,5.3,0.4,8.1,0.4c18.3,0.4,38.6-1.6,60.6-7.7c53.3-14.2,83-34.2,99.2-50.8c1.2-1.2,2.8-0.4,2.8,1.2
					c0.8,14.6,2,39,1.6,46c0.4-5.7,3.3-39,2.8-48c0-3.3-0.4-5.3-0.4-6.9c0-0.4,0-0.8,0.4-1.2c3.3-4.1,5.7-7.7,7.3-11h0.8
					c0.4,0,60.2,5.3,71.2,124.9c0.4,17.9-1.2,31.7-3.3,44.7c-2.4,16.3-4.5,31.7-2,52.9C395.6,590.6,391.9,600.4,383.8,603.2
					 M226,611.4c-6.1,4.9-14.2,7.3-23.2,6.1c-7.7-0.8-13-5.3-17.1-9.4c-1.2-1.2-0.4-2.8,1.2-2.8c13.4,0,27.7-1.6,43.1-4.9
					c1.2-0.4,2.4,1.2,2,2.4C230.9,606.1,228.8,608.9,226,611.4 M40.1,279.9c-2.4-19.1,3.7-68.3,21.6-108.2
					c17.5-38.6,38.6-66.7,85.4-78.9c46-11.4,82.1-4.9,82.6-4.5l1.6,0.4l1.2-0.8c0.8-0.4,22-13.8,34.2-37.8
					c8.9-17.5,37-44.3,52.1-42.7c1.6,0,6.5,0.8,9.4,8.9c7.7,28.1,2,59-2.4,84.2c-0.4,3.3-1.2,6.5-1.6,9.8c-3.3,17.9-9.8,44.3-13.4,59
					c-0.4,1.6-2.8,1.6-3.3,0.4c-4.5-11-13.4-28.5-26.8-46l-0.4-0.4c-1.2-1.6-2.4-2.8-3.7-4.5c-1.6-1.6-4.1,0.4-2.8,2.4l3.7,4.9
					c20.7,26.8,30.1,54.5,30.5,54.9v0.4c0.4,1.6,2.8,1.6,3.3,0v-0.4c0-0.4,12.2-43.5,16.7-69.9c0.4-2.8,1.2-6.1,1.6-9.4
					c1.2-7.7,2.8-15.9,4.1-24c-0.8,36.6-6.5,85-21.6,141.5v1.6c0,0.4,3.7,52.1,4.1,80.5c0,10.2,0,18.7-0.4,23.2c0,0.4,0,0.8-0.4,1.2
					C274,367.8,189.8,392.6,128,389.7c-42.3-1.6-69.1-19.1-83.4-32.1c-0.4-0.4-0.8-1.2-0.4-1.6c1.2-3.7,2.8-10.6,3.7-17.9h0.4l0.4-2
					c1.6-10.6-1.2-22-4.1-34.2C42.6,293.8,40.9,286.8,40.1,279.9 M12.1,63.6c-4.5-14.6-8.1-32.9,1.2-39c4.1-2.4,10.2-2.8,17.5-1.2
					h0.4C60,38,76.7,50.2,88.9,66.4c8.5,11.4,18.3,23.6,23.2,29.7c0.8,0.8,0.4,2-0.4,2.4c-25.2,14.2-40.7,35.4-53.3,61.8
					c-0.4,1.2-2.4,1.2-2.8,0.4C47,148.6,30,119.7,12.1,63.6 M91,56.3c16.3,14.6,31.3,24.4,41.1,30.1c1.2,0.8,1.2,2.8-0.4,3.3
					c-4.9,1.6-9.4,3.7-13.4,5.7c-0.8,0.4-1.6,0-2-0.4C111.3,88.8,100.3,75,91,62.8c-1.6-2-2.8-3.7-4.5-5.7c-1.6-1.6,0.8-4.1,2.4-2.4
					C89.7,55,90.1,55.8,91,56.3 M402.1,575.6c-2.4-20.3,0-35,2-50.8c2-13.4,3.7-27.7,3.3-46.4c-9.8-107.8-57.7-127.7-73.6-131.4
					c-0.8,0-1.2-0.8-1.2-1.6v-30.5c0-3.3-2.4-6.1-5.3-6.9l-2.4-0.4c-0.8,0-1.2-0.8-1.2-1.6c0-25.6-3.7-77.7-4.1-85.4v-0.4
					c21.1-79.3,27.7-158.6,16.7-202.5c-3.3-13.4-11-17.1-16.7-17.5c-20.7-2.4-51.2,29.3-59.8,46.8c-9.4,18.3-24.4,29.7-29.3,33.3
					c-0.4,0.4-0.8,0.4-1.2,0.4c-8.5-1.2-41.1-4.9-81.7,5.3h-1.2c-6.1-2.8-26.4-13.8-49.6-34.6c-17.1-15-66.3-46-87.4-32.5
					C-1.4,25.8-3,42,5.1,66.8c21.6,66.7,41.5,96,48.4,104.5c0.4,0.4,0.4,1.2,0.4,1.6C36.1,214,30.4,262,33.2,282
					c0.8,7.3,2.4,14.2,4.1,21.1c2.4,10.2,4.5,19.9,4.1,28.1c0,0.8-0.4,1.2-1.2,1.6c-13.8,6.9-13.8,10.6-13.8,11.8
					c0,3.3-2.8,26-5.7,32.1l-0.8,1.6c-0.4,0.8,0,1.6,0.4,2l4.9,3.7c0.8,0.4,0.8,1.2,0.4,2c-2.4,6.9-6.9,21.6-5.7,34.6
					c1.2,13.8,2,62.6,2.4,91.5v12.6c0,11.4,2.4,112.7,34.6,123.2c7.7,2.4,15.5,4.9,22.8,4.9c5.7,0,10.6-0.8,15.5-4.1
					c11.4-7.3,18.7-25.6,22-57.3c0-1.2,1.6-2,2.8-1.2c15,8.5,32.5,13.4,52.5,15c0.4,0,1.2,0.4,1.2,0.8c3.7,6.1,12.2,17.9,27.7,19.5
					c1.6,0,2.8,0.4,4.5,0.4c9.4,0.4,18.3-2.8,24.8-8.1c6.1-4.9,9.4-11.8,9.8-19.5c4.9-1.2,10.2-2.4,15.5-4.1c0,0.8,0.4,1.6,0.4,2.4
					v1.2c9.8,37.8,20.3,58.2,33.8,65.9c4.5,2.8,9.4,4.1,14.6,4.1c6.9,0,14.2-1.6,21.6-4.1c21.1-6.5,31.7-28.1,36.6-53.3
					c0.4-1.2,1.6-1.6,2.8-1.2c4.9,3.3,13,4.5,20.7,1.6C393.1,608.1,404.5,600,402.1,575.6"/>
				<path id="Shape_13_" class="st6" d="M136.9,430.8l-0.4-4.1l-2-1.6l-18.7-12.2c-1.6,2-2.8,4.9-4.1,7.3l-1.6,5.7v0.8l26.8,19.5
					C136.9,446.3,137.3,437.3,136.9,430.8L136.9,430.8z"/>
			</g>
		</g>
	</g>
</svg>
