<?xml version="1.0" encoding="UTF-8"?>
<svg width="91px" height="119px" viewBox="0 0 91 119" version="1.1" xmlns="http://www.w3.org/2000/svg" xmlns:xlink="http://www.w3.org/1999/xlink">
    <!-- Generator: Sketch 40.3 (33839) - http://www.bohemiancoding.com/sketch -->
    <title>maven-head</title>
    <desc>Created with Sketch.</desc>
    <defs></defs>
    <g id="Page-1" stroke="none" stroke-width="1" fill="none" fill-rule="evenodd">
        <g id="maven-head">
            <g id="Page-1">
                <g id="Group">
                    <path d="M10.4,57.5 L9.5,65.5 L9.1,69.5 L10.7,73.2 C10.7,73.2 11.3,77.6 11.1,77.9 C10.9,78.2 11.7,81.1 11.6,81.4 C11.5,81.7 11.1,88.4 10.8,88.4 C10.5,88.4 15.4,93.3 22.5,95.3 C29.6,97.3 43.5,99.6 67.6,88.9 L73.1,85.5 L79,80.4 L79.1,68.9 C79.1,68.9 70.6,64 70.7,63.6 C70.8,63.2 70.2,53.1 69.3,51.3 C68.4,49.5 77.5,47.2 77.5,47.2 L80.7,38.9 C80.7,38.9 83.7,13.4 82.9,8.1 C82.1,2.8 81.1,-0.1 76.1,2 C71.1,4.1 66.4,11.6 66.3,11.9 C66.2,12.2 63.1,16.3 63.1,16.3 L56.1,22.1 C56.1,22.1 46.1,20.2 38.5,22.5 C30.9,24.9 29.2,20.7 28.5,20 C27.9,19.3 9.7,1.3 3.4,6.4 L2,8 L1.7,13.4 L3.8,20.2 L8.4,31.8 L14.5,42.3 L10.4,57.5 L10.4,57.5 L10.4,57.5 Z" id="head-pigment-tan" fill="#FAF4F1"></path>
                    <path d="M62.5,101.1 C44.3,107.9 35.8,107 25.9,104.2 C16,101.4 9,95.1 9,95.1" id="body-pigment" fill="#FAF4F1"></path>
                    <path d="M79.1,69.5 L78.2,54.6 L81.2,41.4 C81.2,41.4 84.4,18.5 83.3,12.4 C83.3,12.4 82.7,9 82.3,15.4 C81.8,21.8 77.5,42.9 76.5,45.3 C76.5,45.3 66.7,21.9 54.5,21.3 L48.1,21 C45.9,25.4 41.8,38.9 43.4,56.4 C43.9,61.1 45.5,64.5 47.8,66.8 C48.3,65.9 49.1,65.3 50.1,65 L50.2,65 C50.4,64.8 50.6,64.5 50.9,64.3 C50.8,64.2 50.8,64.1 51,63.9 C51.5,63.3 52.1,62.6 52.6,62 L52.7,61.9 C52.8,61.7 52.9,61.6 53,61.4 C53.2,61.1 53.6,61.3 53.6,61.5 C53.7,61.6 53.7,61.7 53.7,61.8 L53.4,62.7 C53,64 52.1,65 51,65.7 C50.6,66.5 50,67.2 49.3,67.8 C55.6,72.7 65.1,71.8 68.8,70.8 C74.2,69.5 78.2,68.2 79.1,69.5 L79.1,69.5 L79.1,69.5 Z M29.2,18.6 C29.2,18.6 24.2,15 24.1,14.6 C24,14.3 18.8,9.9 18.7,9.6 C18.6,9.3 9.2,6 9.2,6 C9.2,6 12.6,9.2 14.3,9.5 C16,9.9 22.8,16.2 22.8,16.2 C22.8,16.2 28.5,24.4 28.9,24.4 C30.9,24.4 31.1,24.2 27,26.6 C22.9,29 19.3,35.2 15.8,40.2 C12.3,45.2 8.5,64.9 9.3,65.9 C10.1,67 14.8,67.6 15,64.4 C15.2,61.2 16.9,61 17.9,60.4 C18.9,59.8 22,59.5 22.3,59.6 C22.7,59.3 23.2,59 23.9,58.6 C28.9,55.4 28.8,50.7 30.2,41.5 C31.6,32.3 35.5,25.9 39.4,22 L35.2,22 L29.2,18.6 L29.2,18.6 L29.2,18.6 Z" id="head-pigment-orange" fill="#DF795E"></path>
                    <path d="M11.9,83.4 L10.5,88.3 L13.1,91 L15.5,92.8 L19.4,94.5 L23.5,96 C23.5,96 29.5,97.3 29.7,97 C29.8,96.7 38.3,97.2 38.3,97.2 L44.6,96.3 L52.8,94.6 L60.4,92.4 L70.5,87.5 L76.5,83.2 L79.4,80.2 L81.2,78 C81.2,78 81.7,87.2 81.5,86.9 C81.3,86.6 77.9,91.5 77.9,91.5 L71.9,96.6 C71.9,96.6 62.8,101.7 58.8,102.9 C54.7,104.1 43.3,106.6 43.3,106.6 C43.3,106.6 31.3,106.9 28.4,105.4 C25.6,103.9 19.1,102.2 19.1,102.2 L10.7,97.1 L6.5,93.9 L7.5,86.9 C7.5,86.9 8.8,84.8 10.1,84.2" id="collar-color" fill="#CD4B29"></path>
                    <path d="M51.6,63.2 L48.1,65.9 L44.7,67.6 L41,69 L36.9,69.7 L32.4,70.2 L28.2,69.1 L26,68.4 L23,69.4 L22.4,70.2 L20.8,71.5 L20.5,72.6 L20.7,72.8 L20.7,72.9 C20.7,72.9 22.3,73.8 23.4,74.5 C24.5,75.2 31.3,74.5 31.3,74.5 L35.7,73.5 L36,71.7 C36.4,71.4 36.7,71.3 36.7,71.3 L44.8,71.3 L49.9,67.9 L53.3,63.4 L53.7,60.5 L51.6,63.2 L51.6,63.2 L51.6,63.2 Z" id="mouth-color" fill="#E0475A"></path>
                    <g>
                        <polyline id="Shape" fill="#E0475A" points="36.9 70.3 35.5 74.6 35.7 79.7 37 85 38.7 87.9 41.2 88.9 43.7 88.4 45.7 86.7 46 84.9 45.9 81.9 45.3 79.2 44.4 74.7 45.1 72.1 45.9 69.5 47.3 66.9 40.9 68.9"></polyline>
                        <path d="M36.7,108.7 C36.6,113.5 34.3,117.3 31.6,117.2 C28.9,117.1 26.8,113.2 26.9,108.5 C27,103.7 29.3,99.9 32,100 C34.8,100 36.9,103.9 36.7,108.7" id="Shape" fill="#FBB041"></path>
                        <path d="M32.1,100.6 C29.8,100.5 27.8,104.2 27.7,108.5 C27.6,112.8 29.5,116.5 31.7,116.6 C34,116.7 36,113 36.1,108.7 C36.2,104.4 34.4,100.7 32.1,100.6 M31.7,117.8 C28.6,117.7 26.3,113.6 26.4,108.4 C26.5,103.2 29,99.2 32.1,99.3 C35.2,99.4 37.5,103.5 37.4,108.7 C37.3,113.9 34.7,117.9 31.7,117.8" id="Shape" fill="#86371C"></path>
                        <path d="M35.8,108.7 C35.7,113.5 33.4,117.4 30.7,117.3 C28,117.2 25.9,113.3 26,108.5 C26.1,103.7 28.4,99.8 31.1,99.9 C33.8,99.9 35.9,103.9 35.8,108.7" id="Shape" fill="#FBB041"></path>
                        <path d="M31.1,100.5 C28.8,100.4 26.8,104.1 26.7,108.5 C26.6,112.9 28.5,116.6 30.7,116.7 C33,116.8 35,113.1 35.1,108.7 C35.3,104.3 33.4,100.5 31.1,100.5 M30.7,117.9 C27.6,117.8 25.3,113.7 25.4,108.4 C25.5,103.2 28,99.1 31.1,99.2 C34.2,99.3 36.5,103.4 36.4,108.7 C36.3,113.9 33.8,118 30.7,117.9" id="Shape" fill="#86371C"></path>
                        <path d="M27.4,106.3 L34,111.2 C34,111.2 33.7,112.9 33.6,113.1 L27.2,107.8 C27.1,107.8 27.2,106.8 27.4,106.3" id="Shape" fill="#FFFFFF"></path>
                        <path d="M21.8,63 C21.5,61.4 22.6,61.1 22.6,61.1 C22.4,62.3 23,63 23.9,63.3 C24.1,65.2 24.6,66.9 25.6,68.2 L25.5,68.2 C22.8,69.2 19.9,68.8 17.4,67.4 C14.7,65.9 14.8,61.8 17.3,60.8 C17.9,60.7 18.4,60.7 19,60.8 C19.5,63.3 22,64.3 21.8,63 M28.4,70.1 C30.8,70.9 33.4,71 36,70.8 C35.8,71.1 35.6,71.5 35.5,71.9 C35.2,72.3 35,72.8 34.9,73.2 C32.3,73.9 29.8,74.4 27.1,74.5 C25.2,74.5 23.4,74.2 21.7,73.3 C20,72.5 22.5,70.7 23.6,69.8 C24.5,69.7 25.3,69.4 25.9,69 C26,68.9 26.1,68.8 26.1,68.7 C26.6,69.2 27.4,69.8 28.4,70.1 M52.8,62.7 C53.1,62.3 53.4,61.9 53.7,61.4 C53.5,62 53.3,62.5 53,63.1 C52.4,64.3 51.4,65.4 50.5,66.3 C49.3,67.5 48,68.7 46.6,69.7 C47,68.8 47.3,67.9 47.7,67 C49.7,65.9 51.4,64.4 52.8,62.7 M41.6,88.3 C38.1,88.4 36.9,82.9 36.5,80.4 C36,77.4 35.8,73.3 37.8,70.7 C37.9,70.6 37.9,70.5 37.9,70.5 C38.9,70.3 39.8,70.1 40.7,69.9 C39,73.4 40.3,77.6 40.1,81.4 C40.1,81.6 40.4,81.6 40.4,81.4 C40.8,77.3 39.6,73.1 42,69.5 C43.5,69 45.1,68.4 46.5,67.7 C44.8,70.2 43.6,73 44,76.2 C44.6,79.7 47.8,88.1 41.6,88.3 M15,66.7 C15.8,67.9 17.3,68.8 19,69.3 C16.9,70.6 17.3,74.3 18.5,76.3 C20.6,80.1 26.3,81.4 30.3,81.2 C30.4,81.2 30.4,81 30.3,81 C27,80.8 23.1,79.5 20.6,77.3 C19.5,76.3 18.9,75 18.6,73.6 C18.2,71.7 19.3,70.8 20.6,69.7 C21.2,69.8 21.8,69.8 22.4,69.8 C21.5,70.6 20.6,71.5 19.8,72.4 C19.6,72.6 19.6,72.9 19.9,73.1 C24,76.4 29.9,75.5 34.9,74.3 C33.9,79.8 35.5,87.6 40,89.3 C43.4,90.6 46.4,88.2 46.8,84.8 C47.1,82.3 46.2,79.7 45.7,77.3 C45,75 45.4,73.1 46,71.2 C49.4,69.2 55.3,64.4 54.2,60.3 C54.1,60.1 53.9,59.9 53.7,59.9 L53.5,59.9 C53.3,59.9 53.1,60 53,60.1 C49.6,65.4 43.6,68.1 37.6,69.2 C34.9,69.7 31.9,69.6 29.2,69.1 C26.1,68.5 24.8,66.1 23.9,63.3 C25.4,63.7 27.4,63 27.2,62.1 C26.8,60.7 28.9,58.8 28.5,60.2 C28.1,61.6 28.8,62.6 29.7,62.6 C30.7,62.6 32.9,61.4 32.3,59.6 C31.7,57.8 28.9,56.5 26.4,57.2 C24,57.9 19.2,56.4 18.8,59.6 L18.8,59.7 C16.7,59.2 14.6,60.8 14.2,62.9 C14.2,64.2 14.3,65.5 15,66.7 M21.6,55.2 C23.8,55.3 24.9,53.3 24.6,51.4 C24.7,51 24.6,50.5 24.2,50.1 C23.9,49 23.1,48.2 22,48 C20.8,47.9 19.8,48.8 19.1,49.7 C18.4,50.6 18,51.9 18.3,53 C18.8,54.5 20.2,55.2 21.6,55.2 M60.5,51.2 C60.6,49.9 60.2,48.8 59.4,47.9 C59.2,47.6 58.9,47.3 58.4,47.1 C57.9,46.8 57.4,46.7 56.9,46.6 C56.4,46.5 55.8,46.6 55.4,46.7 C53.5,46.8 52.1,48.1 52,50.1 C51.9,54.8 59.9,56.3 60.5,51.2" id="face" fill="#86371C"></path>
                        <path d="M88.9,118.699997 C84.4255645,118.7 14.4027953,118.5 8.1,118.7 C8.1,118.7 7.94538709,116.126736 7.81485911,111.318529 C7.7262552,108.054663 7.62130217,105.315192 7.5,103.9 C7.2,101.2 8.2,98 8.8,96.4 C8.9,96.1 9.2,96 9.5,96.2 C12.6,98.6 18.4,102.9 26.8,105.3 C27,105.4 27.2,105.2 27.3,105 L27.5,104.6 C27.6,104.4 27.5,104.1 27.2,104 C18.3,101.5 12.3,96.8 9.6,94.6 C9.2,94.3 8.6,93.9 8.6,93.9 L8.1,93.5 C8,93.4 7.9,93.2 7.9,93 C8.3,91.7 8.6,89.9 8.8,88.3 C8.8,87.9 9.3,87.8 9.5,88.1 C12.6,91.4 19.7,97.1 32.1,97.6 L33.1,97.6 C48.9,98 70.1,91.4 79.9,80.6 C80.2,80.3 80.7,80.5 80.7,80.9 L80.7,86.4 C79,89.7 72.9,98.4 53,103.8 C46.9,105.5 41.3,105.9 36.4,105.5 C36.1,105.5 35.9,105.7 35.9,106 L36,106.4 C36,106.6 36.2,106.7 36.4,106.7 C37.1,106.7 37.7,106.8 38.4,106.8 C42.9,106.9 47.9,106.4 53.3,104.9 C66.4,101.4 73.7,96.5 77.7,92.4 C78,92.1 78.4,92.3 78.4,92.7 C78.6,96.3 78.9,102.3 78.8,104 C78.9,102.6 79.6,94.4 79.5,92.2 C79.5,91.4 79.4,90.9 79.4,90.5 C79.4,90.4 79.4,90.3 79.5,90.2 C80.3,89.2 80.9,88.3 81.3,87.5 M10.4,69.5 C9.8,64.8 11.3,52.7 15.7,42.9 C20,33.4 25.2,26.5 36.7,23.5 C48,20.7 56.9,22.3 57,22.4 L57.4,22.5 L57.7,22.3 C57.9,22.2 63.1,18.9 66.1,13 C68.3,8.7 75.2,2.1 78.9,2.5 C79.3,2.5 80.5,2.7 81.2,4.7 C83.1,11.6 81.7,19.2 80.6,25.4 C80.5,26.2 80.3,27 80.2,27.8 C79.4,32.2 77.8,38.7 76.9,42.3 C76.8,42.7 76.2,42.7 76.1,42.4 C75,39.7 72.8,35.4 69.5,31.1 L69.4,31 C69.1,30.6 68.8,30.3 68.5,29.9 C68.1,29.5 67.5,30 67.8,30.5 L68.7,31.7 C73.8,38.3 76.1,45.1 76.2,45.2 L76.2,45.3 C76.3,45.7 76.9,45.7 77,45.3 L77,45.2 C77,45.1 80,34.5 81.1,28 C81.2,27.3 81.4,26.5 81.5,25.7 C81.8,23.8 82.2,21.8 82.5,19.8 C82.3,28.8 80.9,40.7 77.2,54.6 L77.2,55 C77.2,55.1 78.1,67.8 78.2,74.8 C78.2,77.3 78.2,79.4 78.1,80.5 C78.1,80.6 78.1,80.7 78,80.8 C67.9,91.1 47.2,97.2 32,96.5 C21.6,96.1 15,91.8 11.5,88.6 C11.4,88.5 11.3,88.3 11.4,88.2 C11.7,87.3 12.1,85.6 12.3,83.8 L12.4,83.8 L12.5,83.3 C12.9,80.7 12.2,77.9 11.5,74.9 C11,72.9 10.6,71.2 10.4,69.5 M3.5,16.3 C2.4,12.7 1.5,8.2 3.8,6.7 C4.8,6.1 6.3,6 8.1,6.4 L8.2,6.4 C15.3,10 19.4,13 22.4,17 C24.5,19.8 26.9,22.8 28.1,24.3 C28.3,24.5 28.2,24.8 28,24.9 C21.8,28.4 18,33.6 14.9,40.1 C14.8,40.4 14.3,40.4 14.2,40.2 C12.1,37.2 7.9,30.1 3.5,16.3 M33,21.9 C33.3,22.1 33.3,22.6 32.9,22.7 C31.7,23.1 30.6,23.6 29.6,24.1 C29.4,24.2 29.2,24.1 29.1,24 C27.9,22.5 25.2,19.1 22.9,16.1 C22.5,15.6 22.2,15.2 21.8,14.7 C21.4,14.3 22,13.7 22.4,14.1 C22.6,14.2 22.7,14.4 22.9,14.5 C26.9,18.1 30.6,20.5 33,21.9 Z M90.9,118.599998 C91.4,115.4 86.5,86.9 82.6,86 C82.4,86 82.3,85.8 82.3,85.6 L82.3,78.1 C82.3,77.3 81.7,76.6 81,76.4 L80.4,76.3 C80.2,76.3 80.1,76.1 80.1,75.9 C80.1,69.6 79.2,56.8 79.1,54.9 C84.3,35.3 85.9,15.8 83.2,5 C82.4,1.7 80.5,0.8 79.1,0.7 C74,0.1 66.5,7.9 64.4,12.2 C62.1,16.7 58.4,19.5 57.2,20.4 C57.1,20.5 57,20.5 56.9,20.5 C54.8,20.2 46.8,19.3 36.8,21.8 C35,21.1 30,18.4 24.3,13.3 C20.1,9.6 8,2 2.8,5.3 C0.2,7 -0.2,11 1.8,17.1 C7.1,33.5 12,40.7 13.7,42.8 C13.8,42.9 13.8,43.1 13.8,43.2 C9.4,53.3 8,65.1 8.7,70 C8.9,71.8 9.3,73.5 9.7,75.2 C10.3,77.7 10.8,80.1 10.7,82.1 C10.7,82.3 10.6,82.4 10.4,82.5 C7,84.2 7,85.1 7,85.4 C7,86.2 6.3,91.8 5.6,93.3 L5.4,93.7 C5.3,93.9 5.4,94.1 5.5,94.2 L6.7,95.1 C6.9,95.2 6.9,95.4 6.8,95.6 C6.2,97.3 5.1,100.9 5.4,104.1 C5.7,107.5 6,118.599998 6,118.599998" id="Shape" fill="#86371C"></path>
                        <path d="M34.2,106.6 L34.1,105.6 L33.6,105.2 L29,102.2 C28.6,102.7 28.3,103.4 28,104 L27.6,105.4 L27.6,105.6 L34.2,110.4 C34.2,110.4 34.3,108.2 34.2,106.6 L34.2,106.6 L34.2,106.6 Z" id="Shape" fill="#FFFFFF"></path>
                    </g>
                </g>
            </g>
        </g>
    </g>
</svg>